<svg width="20" height="18" viewBox="0 0 20 18" fill="none" xmlns="http://www.w3.org/2000/svg">
	<path fill-rule="evenodd" clip-rule="evenodd" d="M19.74 11.7403L19.88 12.4303C20.0324 13.0198 19.9081 13.6465 19.5422 14.1332C19.1762 14.6198 18.6086 14.9132 18 14.9303H14.19C14.1909 16.5489 12.9077 17.8764 11.29 17.9303H2.99998C2.08452 17.9151 1.2261 17.4827 0.668992 16.7562C0.111879 16.0296 -0.0829354 15.0883 0.139983 14.2003L0.349983 13.2003C0.594168 11.8228 1.78112 10.812 3.17998 10.7903H11.12C11.4743 10.3668 11.9978 10.1216 12.55 10.1203H17.84C18.774 10.1501 19.5629 10.8227 19.74 11.7403ZM17.98 13.4203C18.102 13.4158 18.2156 13.3571 18.29 13.2603C18.4208 13.1283 18.4866 12.9454 18.47 12.7603L18.33 12.0703C18.3029 11.8468 18.1241 11.6721 17.9 11.6503H12.61C12.4949 11.6511 12.3871 11.7068 12.32 11.8003C12.0332 12.1306 11.6174 12.3203 11.18 12.3203H3.23998C2.5554 12.337 1.98177 12.8431 1.87998 13.5203L1.66998 14.5203C1.56741 15.0128 1.68825 15.5255 1.99998 15.9203C2.24348 16.2274 2.60842 16.4135 2.99998 16.4303H11.26C12.0648 16.3769 12.6833 15.6966 12.66 14.8903C12.6763 14.0736 13.3431 13.4201 14.16 13.4203H17.98Z" fill="white"/>
	<path fill-rule="evenodd" clip-rule="evenodd" d="M11.1 5.00031C11.1 7.20945 9.30912 9.00031 7.09998 9.00031C4.89084 9.00031 3.09998 7.20945 3.09998 5.00031V3.43031C3.09998 1.57464 4.6043 0.0703125 6.45998 0.0703125H7.76998C9.61393 0.086777 11.1001 1.58629 11.1 3.43031V5.00031ZM6.45998 1.57031C5.43273 1.57031 4.59998 2.40306 4.59998 3.43031L4.62998 5.00031C4.78957 6.25949 5.86073 7.20345 7.12998 7.20345C8.39923 7.20345 9.47039 6.25949 9.62998 5.00031V3.43031C9.62998 2.40306 8.79723 1.57031 7.76998 1.57031H6.45998Z" fill="white"/>
	<path fill-rule="evenodd" clip-rule="evenodd" d="M18.68 5.25031C18.68 6.90717 17.3368 8.25031 15.68 8.25031C14.0231 8.25031 12.68 6.90717 12.68 5.25031V4.10031C12.6798 2.72403 13.7839 1.60216 15.16 1.58031H16.16C17.5517 1.58031 18.68 2.70855 18.68 4.10031V5.25031ZM15.18 3.10031C14.6277 3.10031 14.18 3.54803 14.18 4.10031V5.25031C14.18 6.07874 14.8516 6.75031 15.68 6.75031C16.5084 6.75031 17.18 6.07874 17.18 5.25031V4.10031C17.18 3.54803 16.7323 3.10031 16.18 3.10031H15.18Z" fill="white"/>
</svg>
