<svg width="38" height="32" viewBox="0 0 38 32" fill="none" xmlns="http://www.w3.org/2000/svg">
	<path d="M28.6663 18.6857C28.9275 14.979 27.439 11.8543 25.3418 11.7065C23.2446 11.5588 21.3328 14.4439 21.0716 18.1507C20.8105 21.8574 22.2989 24.9821 24.3961 25.1298C26.4933 25.2776 28.4052 22.3925 28.6663 18.6857Z" fill="white"/>
	<path d="M13.387 24.0409C15.3065 23.9057 16.6688 21.0458 16.4298 17.6532C16.1908 14.2605 14.441 11.6199 12.5215 11.7551C10.602 11.8904 9.23966 14.7503 9.47868 18.1429C9.7177 21.5355 11.4675 24.1762 13.387 24.0409Z" fill="white"/>
	<path d="M37.5992 17.5907C37.3026 17.4215 36.1147 17.9237 35.3859 18.2319C35.1897 18.3148 35.0268 18.3837 34.9235 18.4217C33.8535 18.8518 32.8053 19.341 31.7671 19.8783C31.4482 20.0593 31.3855 19.8748 31.4052 19.5553C31.6104 15.0146 31.615 11.9992 31.4088 10.0695C31.3822 9.87564 31.3518 9.60231 31.3149 9.27C31.0404 6.79663 30.403 1.05581 28.2554 0.503752C26.2638 0.341173 23.8969 5.50716 23.0404 7.37669C23.0129 7.43675 22.9869 7.49341 22.9626 7.54638C22.8776 7.73895 22.8018 7.91484 22.724 8.10084C22.7022 8.15182 22.6968 8.17456 22.6831 8.18213C22.6671 8.19091 22.6399 8.17923 22.5628 8.16755C22.0947 8.0882 21.651 8.01845 21.1607 7.95123C19.5004 7.73592 18.3359 7.73592 16.676 7.95123C16.1853 8.01795 15.7425 8.0882 15.274 8.16755C15.1968 8.17897 15.1696 8.19068 15.1536 8.18193C15.1398 8.17441 15.1342 8.15177 15.1123 8.10084C15.0349 7.91484 14.9586 7.73895 14.8742 7.54638C14.8493 7.49224 14.8227 7.43424 14.7945 7.37269C13.936 5.49984 11.5715 0.341778 9.58085 0.503752C7.43342 1.05587 6.79585 6.79761 6.52122 9.27075C6.48436 9.60269 6.45404 9.87575 6.42749 10.0695C6.22228 11.9992 6.22633 15.0146 6.43203 19.5553C6.45225 19.8748 6.38857 20.0593 6.07015 19.8783C5.032 19.341 3.98374 18.8518 2.91325 18.4217C2.80984 18.3837 2.64682 18.3147 2.45054 18.2317C1.72194 17.9235 0.535046 17.4215 0.238016 17.5907C0.0904314 17.6539 -0.00762156 17.8111 0.000465284 17.9698C0.013101 18.2645 0.332531 18.3974 0.58474 18.4707C2.51446 19.1176 4.40274 19.8965 6.1591 20.9195C6.42193 21.0454 6.5776 21.296 6.5867 21.5862C6.6337 22.0714 6.6898 22.5374 6.74944 22.9685C6.82627 23.3309 6.51897 23.4567 6.23643 23.5492C6.0833 23.6082 5.93033 23.6663 5.77764 23.7243C5.07158 23.9925 4.37161 24.2584 3.69009 24.595C3.56171 24.6612 3.4303 24.7426 3.34842 24.8583C3.17556 25.0777 3.30344 25.4254 3.56879 25.485C3.77211 25.5322 3.97252 25.4358 4.158 25.3466C4.17724 25.3374 4.19632 25.3282 4.21523 25.3193C4.89995 24.9884 5.6042 24.7133 6.30992 24.4375C6.43873 24.3872 6.56758 24.3369 6.69637 24.2862C6.89854 24.228 7.01631 24.3807 7.05927 24.5748C7.12346 24.8143 7.19776 25.0332 7.2953 25.2475C9.12091 29.2853 13.9351 31.4602 18.7438 31.4996C18.8024 31.5001 19.0344 31.5001 19.092 31.4996C23.9001 31.4597 28.7148 29.2848 30.5404 25.2475C30.6385 25.0332 30.7123 24.8138 30.7775 24.5748C30.8199 24.3807 30.9377 24.228 31.1399 24.2862C31.277 24.3403 31.4143 24.3939 31.5515 24.4476C32.2485 24.7202 32.9445 24.9924 33.621 25.3193C33.6404 25.3284 33.66 25.3378 33.6797 25.3473C33.8651 25.4363 34.0646 25.5321 34.2675 25.485C34.5333 25.4254 34.6607 25.0777 34.4888 24.8583C34.4065 24.7426 34.275 24.6612 34.1467 24.595C33.46 24.2556 32.7542 23.9878 32.042 23.7175C31.895 23.6618 31.7478 23.6059 31.6003 23.5492C31.3188 23.4567 31.0105 23.3304 31.0873 22.9685C31.1469 22.5374 31.2025 22.0714 31.2506 21.5862C31.2602 21.2965 31.4148 21.0454 31.6776 20.9195C33.434 19.8965 35.3228 19.1176 37.252 18.4707C37.5047 18.3974 37.8242 18.2645 37.8368 17.9698C37.8449 17.8111 37.7468 17.6534 37.5992 17.5907ZM13.0789 22.6354C11.2543 22.6354 9.77544 20.7234 9.77544 18.3641C9.77544 16.0047 11.2543 14.0932 13.0789 14.0932C14.9035 14.0932 16.3814 16.0052 16.3814 18.3641C16.3814 20.7229 14.9025 22.6354 13.0789 22.6354ZM24.7583 22.685C22.9343 22.685 21.4559 20.7729 21.4559 18.4136C21.4559 16.0543 22.9348 14.1427 24.7583 14.1427C26.5819 14.1427 28.0608 16.0548 28.0608 18.4136C28.0608 20.7724 26.5819 22.685 24.7583 22.685Z" fill="#513879"/>
	<path d="M14.1295 20.486C14.927 20.4298 15.493 19.2416 15.3937 17.8321C15.2944 16.4226 14.5674 15.3255 13.7699 15.3817C12.9724 15.4379 12.4064 16.626 12.5057 18.0355C12.605 19.4451 13.332 20.5422 14.1295 20.486Z" fill="#513879"/>
	<path d="M25.3319 18.0859C25.4312 16.6764 24.8652 15.4882 24.0677 15.432C23.2703 15.3758 22.5433 16.4729 22.444 17.8824C22.3447 19.2919 22.9106 20.4801 23.7081 20.5363C24.5056 20.5925 25.2326 19.4954 25.3319 18.0859Z" fill="#513879"/>
</svg>
