<svg width="25" height="24" viewBox="0 0 25 24" fill="none" xmlns="http://www.w3.org/2000/svg">
<path d="M12.7449 9.81836V14.4656H19.3349C19.0455 15.9602 18.1771 17.2257 16.8747 18.0766L20.8488 21.0984C23.1642 19.0039 24.5 15.9275 24.5 12.273C24.5 11.4221 24.4221 10.6039 24.2774 9.81849L12.7449 9.81836Z" fill="#4285F4"/>
<path d="M5.8824 14.2842L4.98611 14.9566L1.81348 17.3783C3.82834 21.2946 7.95794 24.0001 12.7446 24.0001C16.0507 24.0001 18.8225 22.931 20.8485 21.0984L16.8745 18.0765C15.7835 18.7965 14.392 19.2329 12.7446 19.2329C9.56091 19.2329 6.85595 17.1275 5.88741 14.2911L5.8824 14.2842Z" fill="#34A853"/>
<path d="M1.81346 6.62207C0.978619 8.23655 0.5 10.0584 0.5 12.0002C0.5 13.9419 0.978619 15.7638 1.81346 17.3783C1.81346 17.3891 5.88779 14.2801 5.88779 14.2801C5.64289 13.5601 5.49813 12.7965 5.49813 12C5.49813 11.2036 5.64289 10.44 5.88779 9.72L1.81346 6.62207Z" fill="#FBBC05"/>
<path d="M12.7449 4.77817C14.5482 4.77817 16.1512 5.38906 17.4314 6.56726L20.9379 3.13094C18.8117 1.18916 16.0511 0 12.7449 0C7.9582 0 3.82834 2.69454 1.81348 6.62181L5.88768 9.71999C6.85609 6.88361 9.56116 4.77817 12.7449 4.77817Z" fill="#EA4335"/>
</svg>
